<svg width="529.8" height="73.201" viewBox="0 0 529.8 73.201" xmlns="http://www.w3.org/2000/svg"><g id="svgGroup" stroke-linecap="round" fill-rule="evenodd" font-size="9pt" stroke="#000000" stroke-width="0.25mm" fill="#1576b3" style="stroke:#000000;stroke-width:0.25mm;fill:#1576b3"><path d="M 279.4 19.1 L 278.4 18.7 Q 278.4 10.1 282.35 5.1 A 12.647 12.647 0 0 1 291.567 0.16 A 16.823 16.823 0 0 1 293 0.1 Q 297.106 0.1 299.577 1.842 A 7.644 7.644 0 0 1 301.75 4.2 A 16.399 16.399 0 0 1 303.625 8.987 Q 304.092 11.026 304.18 13.391 A 29.97 29.97 0 0 1 304.2 14.5 A 50.531 50.531 0 0 1 303.829 20.485 A 62.361 62.361 0 0 1 303.25 24.3 Q 302.3 29.5 301.1 34.65 Q 299.9 39.8 298.95 44.2 A 54.358 54.358 0 0 0 298.409 47.048 Q 298.192 48.402 298.09 49.574 A 22.327 22.327 0 0 0 298 51.5 A 12.622 12.622 0 0 0 298.074 52.934 Q 298.24 54.377 298.778 55.094 A 1.688 1.688 0 0 0 300.2 55.8 Q 301.237 55.8 302.847 54.623 A 16.096 16.096 0 0 0 303.7 53.95 Q 305.9 52.1 308.35 48.85 A 57.467 57.467 0 0 0 311.206 44.674 A 72.346 72.346 0 0 0 313.1 41.45 Q 315.4 37.3 317 32.7 A 104.586 104.586 0 0 1 316.756 29.485 A 93.609 93.609 0 0 1 316.7 28.45 Q 316.6 26.4 316.6 24.8 Q 316.6 19.55 317.268 15.635 A 28.045 28.045 0 0 1 318.15 11.9 Q 319.7 7 322.1 4.7 A 10.254 10.254 0 0 1 323.686 3.438 Q 324.72 2.781 325.773 2.54 A 5.477 5.477 0 0 1 327 2.4 Q 330.5 2.4 333.3 6.25 A 13.496 13.496 0 0 1 335.333 10.544 Q 335.86 12.401 336.025 14.615 A 28.096 28.096 0 0 1 336.1 16.7 Q 336.1 20.392 334.884 24.854 A 45.772 45.772 0 0 1 334.6 25.85 A 37.948 37.948 0 0 1 332.678 30.895 Q 331.564 33.315 330.043 35.868 A 64.09 64.09 0 0 1 329.6 36.6 A 57.991 57.991 0 0 0 329.564 38.555 Q 329.556 45.816 331.5 50.5 A 16.627 16.627 0 0 0 332.515 52.565 Q 333.889 54.897 335.612 55.548 A 3.893 3.893 0 0 0 337 55.8 A 4.879 4.879 0 0 0 338.817 55.425 Q 339.532 55.139 340.282 54.635 A 12.485 12.485 0 0 0 341.55 53.65 A 16.909 16.909 0 0 0 343.627 51.444 Q 344.555 50.274 345.427 48.826 A 31.922 31.922 0 0 0 346.1 47.65 A 35.418 35.418 0 0 0 348.199 42.995 A 46.862 46.862 0 0 0 349.55 38.7 Q 350.9 33.6 350.9 27.8 A 56.859 56.859 0 0 0 350.647 22.531 A 65.337 65.337 0 0 0 350.45 20.7 Q 350 17 349.35 13.6 A 72.323 72.323 0 0 0 348.876 11.311 Q 348.636 10.242 348.388 9.328 A 31.598 31.598 0 0 0 348 8 A 4.434 4.434 0 0 1 348.403 6.193 Q 348.765 5.377 349.45 4.55 Q 350.9 2.8 353.2 1.55 Q 355.5 0.3 357.9 0.3 A 6.963 6.963 0 0 1 361.316 1.216 A 9.343 9.343 0 0 1 362.5 2 A 7.707 7.707 0 0 1 364.037 3.634 Q 365.225 5.294 366.1 7.95 A 22.157 22.157 0 0 1 366.838 10.953 Q 367.5 14.638 367.5 20 A 75.275 75.275 0 0 1 366.069 34.894 A 66.23 66.23 0 0 1 364.7 40.45 Q 361.9 50 357.15 57.3 Q 352.4 64.6 346.7 68.75 A 23.664 23.664 0 0 1 341.866 71.508 A 17.499 17.499 0 0 1 335.1 72.9 A 13.851 13.851 0 0 1 330.912 72.293 A 11.341 11.341 0 0 1 326.5 69.7 Q 323.1 66.5 321.2 61.1 Q 319.3 55.7 318.5 49.1 Q 314.9 57.7 310.7 62.95 A 42.066 42.066 0 0 1 307.55 66.487 Q 304.925 69.1 302.3 70.6 A 20.576 20.576 0 0 1 298.969 72.149 Q 296.94 72.867 295.011 72.979 A 12.229 12.229 0 0 1 294.3 73 A 11.133 11.133 0 0 1 285.931 69.351 A 15.221 15.221 0 0 1 285.1 68.4 Q 281.912 64.437 281.471 57.95 A 31.685 31.685 0 0 1 281.4 55.8 A 44.636 44.636 0 0 1 281.598 51.726 Q 281.793 49.601 282.181 47.251 A 75.656 75.656 0 0 1 282.3 46.55 Q 283.2 41.4 284.4 36.1 Q 285.6 30.8 286.5 26.15 A 62.963 62.963 0 0 0 287.012 23.136 Q 287.218 21.701 287.315 20.454 A 26.714 26.714 0 0 0 287.4 18.4 Q 287.4 16.2 286.8 14.95 A 2.063 2.063 0 0 0 285.337 13.778 A 3.269 3.269 0 0 0 284.6 13.7 A 3.277 3.277 0 0 0 283.644 13.855 Q 282.826 14.105 281.862 14.758 A 10.929 10.929 0 0 0 281.8 14.8 Q 280.2 15.9 279.4 19.1 Z M 225.8 8.1 L 225.8 7.5 A 16.393 16.393 0 0 1 228.175 5.268 A 13.014 13.014 0 0 1 230.6 3.8 A 13.449 13.449 0 0 1 233.334 2.864 A 10.944 10.944 0 0 1 235.7 2.6 A 8.849 8.849 0 0 1 242.115 5.216 A 10.775 10.775 0 0 1 242.2 5.3 Q 244.436 7.536 244.82 11.624 A 18.993 18.993 0 0 1 244.9 13.4 Q 244.9 16.3 244.1 20.5 A 185.88 185.88 0 0 1 242.795 26.744 A 216.029 216.029 0 0 1 242.2 29.3 Q 241.1 33.9 240 37.9 A 34.607 34.607 0 0 1 242.842 33.323 A 43.371 43.371 0 0 1 245.05 30.55 Q 248.2 26.9 252.25 24.5 A 16.971 16.971 0 0 1 257.783 22.371 A 15.73 15.73 0 0 1 260.7 22.1 Q 263.633 22.1 265.448 23.167 A 5.401 5.401 0 0 1 267.45 25.2 A 12.86 12.86 0 0 1 268.789 28.796 Q 269.123 30.32 269.186 32.077 A 23.135 23.135 0 0 1 269.2 32.9 A 44.508 44.508 0 0 1 268.848 38.365 A 55.079 55.079 0 0 1 268.3 41.85 Q 267.4 46.6 266.5 50.95 A 55.433 55.433 0 0 0 265.988 53.769 Q 265.782 55.112 265.685 56.279 A 23.388 23.388 0 0 0 265.6 58.2 Q 265.6 62.4 268.1 62.4 Q 269.2 62.4 270.05 61.75 A 4.941 4.941 0 0 0 270.748 61.108 A 3.732 3.732 0 0 0 271.3 60.3 L 272 60.8 A 13.293 13.293 0 0 1 271.64 63.97 A 10.059 10.059 0 0 1 270.1 67.4 Q 268.2 70.1 265.25 71.5 Q 262.3 72.9 259.2 72.9 Q 255.1 72.9 251.8 70.15 Q 249.109 67.908 248.612 63.371 A 19.971 19.971 0 0 1 248.5 61.2 Q 248.5 57.7 249.45 53.6 A 4231.629 4231.629 0 0 1 251.074 46.617 A 3849.912 3849.912 0 0 1 251.3 45.65 A 43.636 43.636 0 0 0 251.812 43.151 Q 252.018 41.959 252.115 40.918 A 18.662 18.662 0 0 0 252.2 39.2 Q 252.2 35.877 249.908 35.802 A 3.275 3.275 0 0 0 249.8 35.8 Q 248.184 35.8 246.352 36.987 A 13.315 13.315 0 0 0 245 38 Q 242.4 40.2 240.45 43.5 A 22.714 22.714 0 0 0 238.778 46.927 A 17.729 17.729 0 0 0 237.9 50 A 6.187 6.187 0 0 0 237.763 50.758 Q 237.716 51.151 237.704 51.597 A 11.419 11.419 0 0 0 237.7 51.9 Q 237.7 54.4 238.45 56.7 Q 239.146 58.833 239.196 61.655 A 24.917 24.917 0 0 1 239.2 62.1 A 14.583 14.583 0 0 1 238.773 65.714 A 11.062 11.062 0 0 1 236.8 69.8 A 7.752 7.752 0 0 1 231.971 72.694 A 11.883 11.883 0 0 1 229.7 72.9 A 10.315 10.315 0 0 1 226.501 72.426 A 8.367 8.367 0 0 1 222.8 70 A 9.739 9.739 0 0 1 220.646 65.881 Q 220.257 64.388 220.207 62.62 A 18.607 18.607 0 0 1 220.2 62.1 Q 220.2 59.523 220.838 55.444 A 88.104 88.104 0 0 1 220.9 55.05 Q 221.6 50.7 222.65 45.45 Q 223.7 40.2 224.7 34.75 A 244.003 244.003 0 0 0 226.031 26.772 A 218.382 218.382 0 0 0 226.4 24.2 A 86.575 86.575 0 0 0 226.827 20.544 Q 227.015 18.546 227.073 16.769 A 47.507 47.507 0 0 0 227.1 15.2 A 29.44 29.44 0 0 0 227.008 12.788 Q 226.812 10.406 226.193 8.899 A 6.186 6.186 0 0 0 225.8 8.1 Z M 1 19.3 L 0 18.9 Q 0.5 10.3 4.3 5.4 A 13.487 13.487 0 0 1 7.574 2.32 A 11.329 11.329 0 0 1 13.9 0.5 Q 18.1 0.5 21.55 2.9 Q 25 5.3 27.65 9.3 Q 30.3 13.3 32.25 18.3 Q 34.2 23.3 35.4 28.5 A 86.355 86.355 0 0 1 37.149 21.62 Q 38.858 15.954 41.1 11.95 A 40.115 40.115 0 0 1 43.565 8.055 Q 45.975 4.721 48.6 2.85 A 18.318 18.318 0 0 1 51.436 1.17 Q 53.15 0.366 54.807 0.114 A 9.943 9.943 0 0 1 56.3 0 Q 61 0 64.35 3.8 Q 67.7 7.6 67.7 13.6 A 20.878 20.878 0 0 1 67.326 17.443 A 27.863 27.863 0 0 1 66.5 20.7 Q 63.6 19.1 60.3 19.1 A 15.557 15.557 0 0 0 54.388 20.305 A 20.297 20.297 0 0 0 51.7 21.65 A 25.463 25.463 0 0 0 46.618 25.658 A 32.701 32.701 0 0 0 43.85 28.85 A 33.718 33.718 0 0 0 39.624 36.205 A 41.145 41.145 0 0 0 38.3 39.8 A 211.801 211.801 0 0 1 38.483 43.503 Q 38.6 46.425 38.6 48.8 Q 38.6 54 38 58.55 Q 37.541 62.034 36.495 66.426 A 125.452 125.452 0 0 1 35.8 69.2 A 12.352 12.352 0 0 1 32.559 71.558 A 11.52 11.52 0 0 1 31.55 72 A 13.514 13.514 0 0 1 28.351 72.811 A 11.954 11.954 0 0 1 26.9 72.9 A 13.607 13.607 0 0 1 23.751 72.548 A 11.594 11.594 0 0 1 21.8 71.9 A 11.034 11.034 0 0 1 20.273 71.098 Q 19.482 70.595 18.909 70.002 A 5.811 5.811 0 0 1 18.4 69.4 A 70.488 70.488 0 0 0 20.177 62.056 A 84.833 84.833 0 0 0 20.85 57.9 Q 21.7 51.7 21.7 45.6 A 73.257 73.257 0 0 0 21.097 36.034 A 62.07 62.07 0 0 0 20.3 31.35 A 39.575 39.575 0 0 0 19.046 26.721 Q 17.831 23.163 16.05 20.6 A 10.689 10.689 0 0 0 13.842 18.224 A 8.159 8.159 0 0 0 8.7 16.5 Q 5.3 16.5 1 19.3 Z M 126.1 35.3 L 125.3 35 A 14.015 14.015 0 0 1 125.711 31.531 A 10.906 10.906 0 0 1 127.3 28 Q 129.3 25.1 132.4 23.6 A 14.823 14.823 0 0 1 136.809 22.232 A 13.58 13.58 0 0 1 138.7 22.1 Q 141.3 22.1 143.7 23.15 Q 146.1 24.2 147.65 26.4 A 8.256 8.256 0 0 1 148.963 29.49 A 11.669 11.669 0 0 1 149.2 31.9 Q 149.2 33.422 148.882 35.406 A 37.69 37.69 0 0 1 148.65 36.7 Q 148.1 39.5 147.4 42.5 Q 146.7 45.6 146.05 48.75 A 36.074 36.074 0 0 0 145.629 51.186 Q 145.464 52.4 145.418 53.478 A 19.16 19.16 0 0 0 145.4 54.3 A 11.354 11.354 0 0 0 145.49 55.778 Q 145.59 56.534 145.799 57.165 A 5.518 5.518 0 0 0 146.1 57.9 A 3.026 3.026 0 0 0 146.592 58.623 A 2.11 2.11 0 0 0 148.2 59.3 A 3.63 3.63 0 0 0 149.965 58.79 Q 151.298 58.048 152.777 56.227 A 24.754 24.754 0 0 0 154.05 54.5 Q 157.3 49.7 159.3 41.6 A 41.741 41.741 0 0 0 159.823 39.197 A 48.559 48.559 0 0 0 160 38.2 Q 160.3 36.4 160.3 34.5 Q 160.3 33 160.1 31.45 A 27.478 27.478 0 0 0 159.506 28.325 A 29.232 29.232 0 0 0 159.5 28.3 L 159.5 27.6 A 11.41 11.41 0 0 1 161.905 24.704 A 10.376 10.376 0 0 1 163.65 23.5 A 11.55 11.55 0 0 1 166.494 22.378 A 9.776 9.776 0 0 1 168.8 22.1 A 9.407 9.407 0 0 1 175.012 24.426 A 11.864 11.864 0 0 1 175.1 24.5 A 7.733 7.733 0 0 1 177.595 28.703 A 12.047 12.047 0 0 1 177.9 31.5 A 17.825 17.825 0 0 1 177.722 33.93 Q 177.478 35.698 176.9 37.75 Q 175.9 41.3 174.7 45.1 Q 173.5 48.8 172.5 52.4 A 31.374 31.374 0 0 0 171.853 55.193 Q 171.5 57.138 171.5 58.8 Q 171.5 62.807 174.27 62.898 A 3.966 3.966 0 0 0 174.4 62.9 Q 174.971 62.9 175.719 62.671 A 8.789 8.789 0 0 0 176.35 62.45 Q 177.301 62.078 178.15 61.055 A 7.919 7.919 0 0 0 178.5 60.6 L 179.2 60.8 A 11.257 11.257 0 0 1 178.513 64.776 A 10.376 10.376 0 0 1 177.25 67.15 Q 175.3 69.9 172.3 71.4 Q 169.3 72.9 166.1 72.9 A 10.408 10.408 0 0 1 159.263 70.351 A 13.564 13.564 0 0 1 158.75 69.9 Q 155.5 66.9 155.5 60.1 L 155.5 59.9 A 47.064 47.064 0 0 1 152.777 64.063 Q 149.956 67.885 147 69.9 A 21.485 21.485 0 0 1 144.062 71.601 Q 142.423 72.372 140.875 72.686 A 10.438 10.438 0 0 1 138.8 72.9 Q 134.3 72.9 131.25 69.2 Q 128.2 65.5 128.2 59.3 Q 128.2 55.9 129 52 Q 129.8 48.1 130.6 44.6 Q 131.3 42 131.75 39.75 A 31.562 31.562 0 0 0 131.987 38.427 Q 132.186 37.153 132.199 36.23 A 9.078 9.078 0 0 0 132.2 36.1 Q 132.2 34.371 131.508 33.565 A 1.978 1.978 0 0 0 131.45 33.5 A 2.678 2.678 0 0 0 130.774 32.968 A 2.22 2.22 0 0 0 129.7 32.7 A 3.316 3.316 0 0 0 128.403 32.974 A 4.499 4.499 0 0 0 127.7 33.35 Q 126.7 34 126.1 35.3 Z M 427.9 35 L 427.5 34.6 Q 427.6 31.2 429.7 28.35 Q 431.8 25.5 435.1 23.8 A 15.298 15.298 0 0 1 439.264 22.339 A 13.585 13.585 0 0 1 441.8 22.1 A 10.684 10.684 0 0 1 445.376 22.68 A 9.44 9.44 0 0 1 448.3 24.35 A 6.627 6.627 0 0 1 450.423 27.697 Q 450.814 29.052 450.814 30.75 A 15.615 15.615 0 0 1 450.8 31.4 Q 450.7 33.5 450.05 36.7 A 130.095 130.095 0 0 1 449.499 39.269 Q 449.243 40.41 448.944 41.667 A 246.996 246.996 0 0 1 448.3 44.3 Q 447.646 46.914 446.949 50.182 A 243.032 243.032 0 0 0 446.85 50.65 A 37.615 37.615 0 0 0 446.312 53.836 Q 446.1 55.56 446.1 57.1 A 11.277 11.277 0 0 0 446.175 58.447 Q 446.257 59.127 446.429 59.692 A 4.917 4.917 0 0 0 446.8 60.6 Q 447.404 61.721 448.676 61.876 A 3.518 3.518 0 0 0 449.1 61.9 Q 451.2 61.9 453.75 59.55 Q 456.3 57.2 458.2 51.85 A 30.792 30.792 0 0 0 459.317 47.753 Q 459.76 45.597 460.031 43.059 A 75.649 75.649 0 0 0 460.4 37.6 Q 460.682 31.212 459.64 28.089 A 8.749 8.749 0 0 0 459.5 27.7 L 459.5 27.2 A 7.797 7.797 0 0 1 460.469 25.994 Q 461.209 25.231 462.25 24.5 A 17.655 17.655 0 0 1 465.553 22.685 A 20.19 20.19 0 0 1 466.4 22.35 A 14.752 14.752 0 0 1 468.49 21.74 A 10.792 10.792 0 0 1 470.7 21.5 A 6.071 6.071 0 0 1 474.966 23.244 A 9.429 9.429 0 0 1 476.15 24.6 A 8.196 8.196 0 0 1 477.239 26.781 Q 478.313 29.93 478.1 35.4 A 41.567 41.567 0 0 1 477.163 43.282 A 34.069 34.069 0 0 1 475.45 48.8 A 38.949 38.949 0 0 1 471.179 56.65 A 34.717 34.717 0 0 1 469.1 59.3 A 40.952 40.952 0 0 1 462.408 65.52 A 37.17 37.17 0 0 1 460.55 66.8 A 42.068 42.068 0 0 1 454.085 70.24 A 36.821 36.821 0 0 1 451.1 71.35 Q 446.3 72.9 442.1 72.9 A 17.841 17.841 0 0 1 438.28 72.515 Q 435.091 71.816 432.9 69.85 A 9.457 9.457 0 0 1 430.272 65.739 Q 429.5 63.45 429.5 60.4 Q 429.5 56.7 430.45 52.5 A 213.251 213.251 0 0 1 431.33 48.76 Q 431.76 47.004 432.18 45.442 A 127.292 127.292 0 0 1 432.3 45 A 157.981 157.981 0 0 0 432.926 42.713 Q 433.406 40.9 433.75 39.4 Q 434.207 37.405 434.284 36.169 A 7.561 7.561 0 0 0 434.3 35.7 A 5.768 5.768 0 0 0 434.246 34.882 Q 434.106 33.906 433.6 33.4 A 2.311 2.311 0 0 0 431.931 32.7 A 2.839 2.839 0 0 0 431.9 32.7 A 4.452 4.452 0 0 0 428.583 34.161 A 6.856 6.856 0 0 0 427.9 35 Z M 527.2 53.5 L 527.9 54 A 21.004 21.004 0 0 1 527.517 58.112 A 15.067 15.067 0 0 1 525.75 62.85 Q 523.6 66.5 520.1 68.8 Q 516.6 71.1 512.45 72.15 Q 508.3 73.2 504.2 73.2 Q 498.041 73.2 493.661 71.1 A 17.098 17.098 0 0 1 492.1 70.25 Q 487.3 67.3 484.9 62.45 Q 482.5 57.6 482.5 52 Q 482.5 46.7 484.55 41.35 Q 486.6 36 490.55 31.6 A 30.173 30.173 0 0 1 499.799 24.671 A 34.389 34.389 0 0 1 500.15 24.5 Q 505.8 21.8 512.9 21.8 A 31.155 31.155 0 0 1 517.474 22.113 Q 522.839 22.911 525.75 25.75 A 13.106 13.106 0 0 1 529.157 31.1 A 13.452 13.452 0 0 1 529.8 35.3 Q 529.8 40.1 527.25 44.15 Q 524.7 48.2 520.5 50.65 Q 516.3 53.1 511.3 53.1 A 18.237 18.237 0 0 1 506.841 52.531 A 20.915 20.915 0 0 1 506 52.3 Q 503.3 51.5 500.7 49.8 A 21.494 21.494 0 0 0 501.226 53.182 Q 501.659 54.95 502.394 56.323 A 9.053 9.053 0 0 0 504.3 58.8 Q 507.4 61.6 511.7 61.6 Q 514.7 61.6 517.7 60.45 Q 520.7 59.3 523.25 57.45 Q 525.8 55.6 527.2 53.5 Z M 421.8 26.8 L 422 27.4 A 47.062 47.062 0 0 0 421.1 29.58 Q 420.35 31.525 419.6 33.9 A 117.388 117.388 0 0 0 417.653 40.818 A 130.149 130.149 0 0 0 417.4 41.85 A 97.598 97.598 0 0 0 415.956 48.96 A 88.43 88.43 0 0 0 415.8 49.95 Q 415.2 53.9 415.2 56.9 A 24.505 24.505 0 0 0 415.242 58.4 Q 415.372 60.508 415.9 61.45 A 3.646 3.646 0 0 0 416.281 62.012 Q 416.524 62.301 416.796 62.469 A 1.505 1.505 0 0 0 417.6 62.7 A 2.574 2.574 0 0 0 419.126 62.174 Q 419.93 61.594 420.655 60.377 A 10.342 10.342 0 0 0 420.7 60.3 L 421.5 60.7 Q 421.5 64.1 419.3 66.9 Q 417.1 69.7 413.8 71.35 A 15.892 15.892 0 0 1 410.088 72.684 A 13.476 13.476 0 0 1 407.2 73 Q 403.7 73 401.1 70.7 A 6.904 6.904 0 0 1 399.234 67.907 Q 398.5 65.963 398.5 63.2 L 398.5 62.2 Q 398.5 61.7 398.6 61.2 A 35.704 35.704 0 0 1 396.449 64.953 Q 394.311 68.18 391.85 70.05 A 15.812 15.812 0 0 1 388.92 71.839 Q 386.619 72.9 384.3 72.9 A 10.022 10.022 0 0 1 378.988 71.352 A 13.155 13.155 0 0 1 377.7 70.45 Q 374.915 68.249 373.098 64.151 A 25.565 25.565 0 0 1 372.7 63.2 Q 371.021 58.958 370.826 53.154 A 46.239 46.239 0 0 1 370.8 51.6 Q 370.8 44.6 372.75 39.1 A 33.493 33.493 0 0 1 375.134 33.808 A 26.228 26.228 0 0 1 377.9 29.8 A 25.641 25.641 0 0 1 381.442 26.307 A 20.378 20.378 0 0 1 384.9 24.05 Q 388.7 22.1 392.3 22.1 Q 396.3 22.1 399.5 24.55 A 10.412 10.412 0 0 1 402.268 27.834 Q 403.04 29.229 403.558 30.984 A 21.076 21.076 0 0 1 403.9 32.3 Q 404.2 30.6 404.35 29.2 Q 404.48 27.989 404.497 27.451 A 4.686 4.686 0 0 0 404.5 27.3 A 4.379 4.379 0 0 1 405.149 25.085 Q 405.665 24.266 406.589 23.672 A 6.557 6.557 0 0 1 407.25 23.3 A 12.862 12.862 0 0 1 412.26 22.023 A 15.24 15.24 0 0 1 413.1 22 Q 415.9 22 418.4 23.1 A 6.006 6.006 0 0 1 421.712 26.56 A 7.392 7.392 0 0 1 421.8 26.8 Z M 182.3 34.1 L 182.1 33.4 A 28.8 28.8 0 0 1 184.678 30.674 A 24.216 24.216 0 0 1 186.3 29.3 Q 188.5 27.6 190.9 26.5 A 1428.927 1428.927 0 0 0 191.819 21.796 Q 192.178 19.939 192.498 18.252 A 775.725 775.725 0 0 0 193.1 15.05 Q 193.959 10.419 193.998 9.389 A 2.386 2.386 0 0 0 194 9.3 A 2.189 2.189 0 0 1 194.622 7.794 Q 195.242 7.113 196.481 6.572 A 10.098 10.098 0 0 1 196.65 6.5 A 14.351 14.351 0 0 1 200.504 5.519 A 18.039 18.039 0 0 1 202.6 5.4 Q 205.5 5.4 208.05 6.5 A 6.208 6.208 0 0 1 210.346 8.152 A 6.245 6.245 0 0 1 211.5 10.2 A 1.75 1.75 0 0 0 211.236 10.578 Q 210.677 11.582 209.8 14.65 A 111.625 111.625 0 0 0 208.961 17.77 Q 208.25 20.563 207.5 24 Q 209.4 24.1 211.4 24.2 Q 213.4 24.3 215.5 24.5 Q 215.7 25.1 215.8 25.8 A 9.907 9.907 0 0 1 215.886 26.714 A 11.931 11.931 0 0 1 215.9 27.3 Q 215.9 28.8 215.45 30.55 Q 215 32.3 214.4 33.7 A 138.035 138.035 0 0 1 211.517 33.431 A 113.463 113.463 0 0 1 209.9 33.25 A 60.149 60.149 0 0 0 205.863 32.903 A 55.169 55.169 0 0 0 205.8 32.9 Q 205 37.2 204.35 41.5 Q 203.7 45.8 203.35 49.3 Q 203.062 52.185 203.011 54.051 A 27.665 27.665 0 0 0 203 54.8 A 17.873 17.873 0 0 0 203.085 56.615 Q 203.278 58.495 203.907 59.587 A 3.309 3.309 0 0 0 204.55 60.4 Q 206.1 61.8 208.3 61.8 Q 210.3 61.8 211.9 61 A 7.803 7.803 0 0 0 212.934 60.386 Q 213.458 60.014 213.83 59.591 A 3.967 3.967 0 0 0 214.2 59.1 L 215.2 59.4 Q 214.6 63.5 212 66.55 Q 209.4 69.6 205.8 71.25 Q 202.2 72.9 198.6 72.9 Q 195.4 72.9 192.55 71.45 A 10.61 10.61 0 0 1 188.653 68.016 A 13.379 13.379 0 0 1 187.95 66.9 A 12.568 12.568 0 0 1 186.694 63.62 Q 186.2 61.55 186.2 59 A 35.59 35.59 0 0 1 186.249 57.219 Q 186.353 55.156 186.678 52.386 A 114.773 114.773 0 0 1 186.7 52.2 Q 187.2 48 188.05 43 Q 188.9 38 189.8 33 Q 187.8 33.1 185.95 33.4 Q 184.1 33.7 182.3 34.1 Z M 90.6 73.2 Q 83.1 73.2 78.2 70.2 Q 73.3 67.2 70.95 62.25 Q 68.6 57.3 68.6 51.7 A 30.298 30.298 0 0 1 70.3 41.804 A 34.448 34.448 0 0 1 70.55 41.1 Q 72.5 35.8 76.25 31.45 Q 80 27.1 85.4 24.45 A 25.682 25.682 0 0 1 93.177 22.113 A 33.047 33.047 0 0 1 97.8 21.8 A 30.357 30.357 0 0 1 103.052 22.229 Q 107.119 22.944 110.15 24.85 Q 115 27.9 117.35 32.9 Q 119.7 37.9 119.7 43.6 A 30.152 30.152 0 0 1 118.193 52.902 A 34.536 34.536 0 0 1 117.8 54.05 Q 115.9 59.3 112.15 63.65 Q 108.4 68 103 70.6 A 26.027 26.027 0 0 1 95.274 72.886 A 33.632 33.632 0 0 1 90.6 73.2 Z M 93.3 64.7 A 4.745 4.745 0 0 0 96.748 63.222 A 7.809 7.809 0 0 0 97.8 61.9 A 16.623 16.623 0 0 0 99.246 59.044 Q 99.817 57.608 100.237 55.911 A 31.037 31.037 0 0 0 100.5 54.75 Q 101.4 50.4 101.4 45.9 A 38.195 38.195 0 0 0 101.046 40.613 A 33.103 33.103 0 0 0 100.65 38.35 Q 100.043 35.476 98.944 33.454 A 11.697 11.697 0 0 0 98.4 32.55 A 5.784 5.784 0 0 0 97.291 31.292 A 4.241 4.241 0 0 0 94.5 30.3 A 4.586 4.586 0 0 0 91.41 31.506 Q 90.777 32.059 90.21 32.865 A 10.008 10.008 0 0 0 90.05 33.1 A 16.448 16.448 0 0 0 88.524 36.055 Q 87.778 37.916 87.3 40.2 Q 86.4 44.5 86.4 49.1 A 38.195 38.195 0 0 0 86.754 54.388 A 33.103 33.103 0 0 0 87.15 56.65 Q 87.757 59.524 88.856 61.546 A 11.697 11.697 0 0 0 89.4 62.45 A 5.784 5.784 0 0 0 90.509 63.708 A 4.241 4.241 0 0 0 93.3 64.7 Z M 390.9 60.3 A 3.688 3.688 0 0 0 392.698 59.782 Q 394.036 59.035 395.501 57.214 A 23.711 23.711 0 0 0 396.65 55.65 A 27.588 27.588 0 0 0 398.715 51.975 Q 400.591 48.01 402.1 42.3 Q 402.3 41.4 402.5 40.55 A 16.206 16.206 0 0 0 402.744 39.303 A 14.385 14.385 0 0 0 402.8 38.9 Q 401.2 35.2 399.45 33.65 A 7.781 7.781 0 0 0 398.314 32.804 Q 397.629 32.392 396.953 32.221 A 3.881 3.881 0 0 0 396 32.1 A 4.901 4.901 0 0 0 393.298 32.939 Q 392.574 33.407 391.884 34.138 A 10.866 10.866 0 0 0 391.35 34.75 A 18.285 18.285 0 0 0 389.291 37.947 Q 388.495 39.501 387.87 41.342 A 29.936 29.936 0 0 0 387.85 41.4 Q 386.5 45.4 386.5 49.4 Q 386.5 54.166 387.438 56.829 A 8.783 8.783 0 0 0 387.75 57.6 A 7.91 7.91 0 0 0 388.372 58.718 Q 388.749 59.274 389.174 59.635 A 2.606 2.606 0 0 0 390.9 60.3 Z M 506.5 46.2 A 9.037 9.037 0 0 0 508.817 45.918 A 6.698 6.698 0 0 0 511.7 44.35 Q 513.7 42.5 514.7 40 A 16.95 16.95 0 0 0 515.3 38.245 Q 515.547 37.355 515.641 36.556 A 8.13 8.13 0 0 0 515.7 35.6 A 6.72 6.72 0 0 0 515.451 33.731 A 5.358 5.358 0 0 0 514.4 31.75 A 4.251 4.251 0 0 0 511.563 30.246 A 6.124 6.124 0 0 0 510.8 30.2 Q 509.323 30.2 507.611 31.075 A 12.214 12.214 0 0 0 506.85 31.5 Q 504.7 32.8 503 35.95 A 14.768 14.768 0 0 0 501.933 38.531 Q 501.12 41.113 500.8 44.7 A 19.362 19.362 0 0 0 503.01 45.585 Q 504.161 45.96 505.205 46.106 A 9.321 9.321 0 0 0 506.5 46.2 Z" vector-effect="non-scaling-stroke"/></g></svg>